<svg width="513" height="657" viewBox="0 0 513 657" fill="none" xmlns="http://www.w3.org/2000/svg">
<g filter="url(#filter0_b_2379_359)">
<path d="M0 25C0 11.1929 11.1929 0 25 0H263C401.071 0 513 111.929 513 250V632C513 645.807 501.807 657 488 657H25C11.1929 657 0 645.807 0 632V25Z" fill="white" fill-opacity="0.01"/>
<path d="M0 25C0 11.1929 11.1929 0 25 0H263C401.071 0 513 111.929 513 250V632C513 645.807 501.807 657 488 657H25C11.1929 657 0 645.807 0 632V25Z" fill="url(#paint0_radial_2379_359)" fill-opacity="0.2"/>
<path d="M25 1.49875H263C400.243 1.49875 511.501 112.757 511.501 250V632C511.501 644.979 500.979 655.501 488 655.501H25C12.0206 655.501 1.49875 644.979 1.49875 632V25C1.49875 12.0206 12.0206 1.49875 25 1.49875Z" stroke="url(#paint1_linear_2379_359)" stroke-width="2.9975"/>
</g>
<defs>
<filter id="filter0_b_2379_359" x="-213.651" y="-213.651" width="940.302" height="1084.3" filterUnits="userSpaceOnUse" color-interpolation-filters="sRGB">
<feFlood flood-opacity="0" result="BackgroundImageFix"/>
<feGaussianBlur in="BackgroundImageFix" stdDeviation="106.826"/>
<feComposite in2="SourceAlpha" operator="in" result="effect1_backgroundBlur_2379_359"/>
<feBlend mode="normal" in="SourceGraphic" in2="effect1_backgroundBlur_2379_359" result="shape"/>
</filter>
<radialGradient id="paint0_radial_2379_359" cx="0" cy="0" r="1" gradientUnits="userSpaceOnUse" gradientTransform="translate(392.596 403.256) rotate(-144.231) scale(460.687 511.323)">
<stop offset="0.2375" stop-opacity="0"/>
<stop offset="0.76875" stop-color="#F80068" stop-opacity="0.38"/>
<stop offset="0.930208" stop-color="#CD5286" stop-opacity="0.25"/>
</radialGradient>
<linearGradient id="paint1_linear_2379_359" x1="493.232" y1="566.665" x2="2.85965" y2="449.879" gradientUnits="userSpaceOnUse">
<stop offset="0.191" stop-color="#F80068" stop-opacity="0.27"/>
<stop offset="0.768459" stop-color="#3E3E3E" stop-opacity="0.119944"/>
<stop offset="1" stop-color="#FD5B00" stop-opacity="0.18"/>
</linearGradient>
</defs>
</svg>
