<svg width="745" height="773" viewBox="0 0 745 773" fill="none" xmlns="http://www.w3.org/2000/svg">
<g filter="url(#filter0_f_1941_355)">
<path d="M325.471 81.6672C346.267 45.7593 398.112 45.7593 418.908 81.6672L670.582 516.225C691.427 552.217 665.456 597.27 623.864 597.27H120.515C78.9228 597.27 52.9519 552.217 73.7966 516.225L325.471 81.6672Z" fill="#F80068"/>
<path d="M418.441 81.9378L670.115 516.495C690.751 552.127 665.04 596.73 623.864 596.73H120.515C79.3387 596.73 53.6275 552.127 74.2638 516.495L325.938 81.9378C346.526 46.389 397.852 46.389 418.441 81.9378Z" stroke="#9E2900" stroke-width="1.07976"/>
</g>
<path d="M328.934 91.8679C348.082 58.4376 396.296 58.4375 415.444 91.8678L658.663 516.508C677.697 549.74 653.704 591.131 615.408 591.131H128.97C90.6741 591.131 66.6819 549.74 85.7156 516.508L328.934 91.8679Z" fill="#F80068"/>
<g filter="url(#filter1_i_1941_355)">
<path d="M331.109 99.0115C349.367 67.3881 395.011 67.3881 413.269 99.0115L653.434 514.99C671.692 546.613 648.87 586.142 612.354 586.142H132.024C95.5082 586.142 72.6861 546.613 90.9438 514.99L331.109 99.0115Z" fill="#131313"/>
</g>
<path d="M410.367 97.8166L653.018 518.1C669.986 547.49 648.776 584.227 614.84 584.227H129.538C95.6019 584.227 74.3917 547.49 91.3598 518.1L334.011 97.8166C350.979 68.4269 393.399 68.4269 410.367 97.8166Z" fill="white" fill-opacity="0.01" stroke="url(#paint0_linear_1941_355)" stroke-width="3.83087"/>
<defs>
<filter id="filter0_f_1941_355" x="12.4583" y="0.748379" width="719.462" height="650.509" filterUnits="userSpaceOnUse" color-interpolation-filters="sRGB">
<feFlood flood-opacity="0" result="BackgroundImageFix"/>
<feBlend mode="normal" in="SourceGraphic" in2="BackgroundImageFix" result="shape"/>
<feGaussianBlur stdDeviation="26.994" result="effect1_foregroundBlur_1941_355"/>
</filter>
<filter id="filter1_i_1941_355" x="84.5176" y="75.2939" width="575.343" height="514.643" filterUnits="userSpaceOnUse" color-interpolation-filters="sRGB">
<feFlood flood-opacity="0" result="BackgroundImageFix"/>
<feBlend mode="normal" in="SourceGraphic" in2="BackgroundImageFix" result="shape"/>
<feColorMatrix in="SourceAlpha" type="matrix" values="0 0 0 0 0 0 0 0 0 0 0 0 0 0 0 0 0 0 127 0" result="hardAlpha"/>
<feOffset dy="3.79481"/>
<feGaussianBlur stdDeviation="37.9481"/>
<feComposite in2="hardAlpha" operator="arithmetic" k2="-1" k3="1"/>
<feColorMatrix type="matrix" values="0 0 0 0 0.658333 0 0 0 0 0.00548613 0 0 0 0 0.279261 0 0 0 1 0"/>
<feBlend mode="normal" in2="shape" result="effect1_innerShadow_1941_355"/>
</filter>
<linearGradient id="paint0_linear_1941_355" x1="1017.6" y1="487.868" x2="-71.7063" y2="640.981" gradientUnits="userSpaceOnUse">
<stop offset="0.137979" stop-opacity="0.2"/>
<stop offset="0.241339" stop-color="#F80068" stop-opacity="0.45"/>
<stop offset="1" stop-color="white" stop-opacity="0.490192"/>
</linearGradient>
</defs>
</svg>
