<svg width="255" height="56" viewBox="0 0 255 56" fill="none" xmlns="http://www.w3.org/2000/svg">
<path d="M87.0927 21.716C87.3807 22.7 87.6927 23.816 88.0287 25.064C88.3887 26.288 88.7607 27.56 89.1447 28.88C89.5527 30.2 89.9607 31.52 90.3687 32.84C90.7767 34.16 91.1727 35.384 91.5567 36.512C91.8687 35.288 92.1807 33.956 92.4927 32.516C92.8287 31.076 93.1407 29.588 93.4287 28.052C93.7167 26.516 93.9927 24.992 94.2567 23.48C94.5447 21.944 94.8087 20.468 95.0487 19.052H100.881C100.041 23.228 99.0687 27.464 97.9647 31.76C96.8847 36.056 95.7087 40.136 94.4367 44H89.2887C88.4487 41.696 87.6327 39.284 86.8407 36.764C86.0487 34.22 85.2687 31.676 84.5007 29.132C83.7327 31.676 82.9647 34.22 82.1967 36.764C81.4287 39.284 80.6247 41.696 79.7847 44H74.6367C73.3647 40.136 72.1767 36.056 71.0727 31.76C69.9927 27.464 69.0327 23.228 68.1927 19.052H74.2767C74.5167 20.468 74.7807 21.944 75.0687 23.48C75.3567 24.992 75.6567 26.516 75.9687 28.052C76.2807 29.588 76.5927 31.076 76.9047 32.516C77.2407 33.956 77.5767 35.288 77.9127 36.512C78.3447 35.336 78.7647 34.088 79.1727 32.768C79.5807 31.448 79.9767 30.128 80.3607 28.808C80.7447 27.488 81.0927 26.216 81.4047 24.992C81.7407 23.768 82.0407 22.676 82.3047 21.716H87.0927ZM102.034 34.676C102.034 32.996 102.286 31.532 102.79 30.284C103.318 29.012 104.002 27.956 104.842 27.116C105.682 26.276 106.642 25.64 107.722 25.208C108.826 24.776 109.954 24.56 111.106 24.56C113.794 24.56 115.918 25.388 117.478 27.044C119.038 28.676 119.818 31.088 119.818 34.28C119.818 34.592 119.806 34.94 119.782 35.324C119.758 35.684 119.734 36.008 119.71 36.296H107.542C107.662 37.4 108.178 38.276 109.09 38.924C110.002 39.572 111.226 39.896 112.762 39.896C113.746 39.896 114.706 39.812 115.642 39.644C116.602 39.452 117.382 39.224 117.982 38.96L118.702 43.316C118.414 43.46 118.03 43.604 117.55 43.748C117.07 43.892 116.53 44.012 115.93 44.108C115.354 44.228 114.73 44.324 114.058 44.396C113.386 44.468 112.714 44.504 112.042 44.504C110.338 44.504 108.85 44.252 107.578 43.748C106.33 43.244 105.286 42.56 104.446 41.696C103.63 40.808 103.018 39.764 102.61 38.564C102.226 37.364 102.034 36.068 102.034 34.676ZM114.634 32.624C114.61 32.168 114.526 31.724 114.382 31.292C114.262 30.86 114.058 30.476 113.77 30.14C113.506 29.804 113.158 29.528 112.726 29.312C112.318 29.096 111.802 28.988 111.178 28.988C110.578 28.988 110.062 29.096 109.63 29.312C109.198 29.504 108.838 29.768 108.55 30.104C108.262 30.44 108.034 30.836 107.866 31.292C107.722 31.724 107.614 32.168 107.542 32.624H114.634ZM136.09 34.388C136.09 30.932 134.818 29.204 132.274 29.204C131.722 29.204 131.17 29.276 130.618 29.42C130.09 29.564 129.658 29.744 129.322 29.96V39.716C129.586 39.764 129.922 39.812 130.33 39.86C130.738 39.884 131.182 39.896 131.662 39.896C133.126 39.896 134.23 39.392 134.974 38.384C135.718 37.376 136.09 36.044 136.09 34.388ZM141.562 34.532C141.562 36.044 141.334 37.412 140.878 38.636C140.446 39.86 139.81 40.904 138.97 41.768C138.13 42.632 137.098 43.304 135.874 43.784C134.65 44.24 133.258 44.468 131.698 44.468C131.05 44.468 130.366 44.432 129.646 44.36C128.95 44.312 128.254 44.24 127.558 44.144C126.886 44.048 126.238 43.94 125.614 43.82C124.99 43.676 124.438 43.532 123.958 43.388V16.928L129.322 16.064V25.496C129.922 25.232 130.546 25.028 131.194 24.884C131.842 24.74 132.538 24.668 133.282 24.668C134.626 24.668 135.814 24.908 136.846 25.388C137.878 25.844 138.742 26.504 139.438 27.368C140.134 28.232 140.662 29.276 141.022 30.5C141.382 31.7 141.562 33.044 141.562 34.532ZM152.668 19.052C153.1 19.844 153.592 20.828 154.144 22.004C154.72 23.156 155.308 24.416 155.908 25.784C156.532 27.128 157.144 28.508 157.744 29.924C158.344 31.34 158.908 32.672 159.436 33.92C159.964 32.672 160.528 31.34 161.128 29.924C161.728 28.508 162.328 27.128 162.928 25.784C163.552 24.416 164.14 23.156 164.692 22.004C165.268 20.828 165.772 19.844 166.204 19.052H171.316C171.556 20.708 171.772 22.568 171.964 24.632C172.18 26.672 172.36 28.808 172.504 31.04C172.672 33.248 172.816 35.468 172.936 37.7C173.08 39.932 173.2 42.032 173.296 44H167.824C167.752 41.576 167.656 38.936 167.536 36.08C167.416 33.224 167.236 30.344 166.996 27.44C166.564 28.448 166.084 29.564 165.556 30.788C165.028 32.012 164.5 33.236 163.972 34.46C163.468 35.684 162.976 36.86 162.496 37.988C162.016 39.092 161.608 40.04 161.272 40.832H157.348C157.012 40.04 156.604 39.092 156.124 37.988C155.644 36.86 155.14 35.684 154.612 34.46C154.108 33.236 153.592 32.012 153.064 30.788C152.536 29.564 152.056 28.448 151.624 27.44C151.384 30.344 151.204 33.224 151.084 36.08C150.964 38.936 150.868 41.576 150.796 44H145.324C145.42 42.032 145.528 39.932 145.648 37.7C145.792 35.468 145.936 33.248 146.08 31.04C146.248 28.808 146.428 26.672 146.62 24.632C146.836 22.568 147.064 20.708 147.304 19.052H152.668ZM177.093 34.676C177.093 32.996 177.345 31.532 177.849 30.284C178.377 29.012 179.061 27.956 179.901 27.116C180.741 26.276 181.701 25.64 182.781 25.208C183.885 24.776 185.013 24.56 186.165 24.56C188.853 24.56 190.977 25.388 192.537 27.044C194.097 28.676 194.877 31.088 194.877 34.28C194.877 34.592 194.865 34.94 194.841 35.324C194.817 35.684 194.793 36.008 194.769 36.296H182.601C182.721 37.4 183.237 38.276 184.149 38.924C185.061 39.572 186.285 39.896 187.821 39.896C188.805 39.896 189.765 39.812 190.701 39.644C191.661 39.452 192.441 39.224 193.041 38.96L193.761 43.316C193.473 43.46 193.089 43.604 192.609 43.748C192.129 43.892 191.589 44.012 190.989 44.108C190.413 44.228 189.789 44.324 189.117 44.396C188.445 44.468 187.773 44.504 187.101 44.504C185.397 44.504 183.909 44.252 182.637 43.748C181.389 43.244 180.345 42.56 179.505 41.696C178.689 40.808 178.077 39.764 177.669 38.564C177.285 37.364 177.093 36.068 177.093 34.676ZM189.693 32.624C189.669 32.168 189.585 31.724 189.441 31.292C189.321 30.86 189.117 30.476 188.829 30.14C188.565 29.804 188.217 29.528 187.785 29.312C187.377 29.096 186.861 28.988 186.237 28.988C185.637 28.988 185.121 29.096 184.689 29.312C184.257 29.504 183.897 29.768 183.609 30.104C183.321 30.44 183.093 30.836 182.925 31.292C182.781 31.724 182.673 32.168 182.601 32.624H189.693ZM203.588 34.388C203.588 36.044 203.96 37.376 204.704 38.384C205.448 39.392 206.552 39.896 208.016 39.896C208.496 39.896 208.94 39.884 209.348 39.86C209.756 39.812 210.092 39.764 210.356 39.716V29.96C210.02 29.744 209.576 29.564 209.024 29.42C208.496 29.276 207.956 29.204 207.404 29.204C204.86 29.204 203.588 30.932 203.588 34.388ZM215.72 43.388C215.24 43.532 214.688 43.676 214.064 43.82C213.44 43.94 212.78 44.048 212.084 44.144C211.412 44.24 210.716 44.312 209.996 44.36C209.3 44.432 208.628 44.468 207.98 44.468C206.42 44.468 205.028 44.24 203.804 43.784C202.58 43.328 201.548 42.68 200.708 41.84C199.868 40.976 199.22 39.944 198.764 38.744C198.332 37.52 198.116 36.152 198.116 34.64C198.116 33.104 198.308 31.724 198.692 30.5C199.076 29.252 199.628 28.196 200.348 27.332C201.068 26.468 201.944 25.808 202.976 25.352C204.032 24.896 205.232 24.668 206.576 24.668C207.32 24.668 207.98 24.74 208.556 24.884C209.156 25.028 209.756 25.232 210.356 25.496V16.928L215.72 16.064V43.388ZM226.107 44H220.743V25.064H226.107V44ZM226.611 19.592C226.611 20.576 226.287 21.356 225.639 21.932C225.015 22.484 224.271 22.76 223.407 22.76C222.543 22.76 221.787 22.484 221.139 21.932C220.515 21.356 220.203 20.576 220.203 19.592C220.203 18.608 220.515 17.84 221.139 17.288C221.787 16.712 222.543 16.424 223.407 16.424C224.271 16.424 225.015 16.712 225.639 17.288C226.287 17.84 226.611 18.608 226.611 19.592ZM238.385 40.256C238.913 40.256 239.417 40.244 239.897 40.22C240.377 40.196 240.761 40.16 241.049 40.112V36.044C240.833 35.996 240.509 35.948 240.077 35.9C239.645 35.852 239.249 35.828 238.889 35.828C238.385 35.828 237.905 35.864 237.449 35.936C237.017 35.984 236.633 36.092 236.297 36.26C235.961 36.428 235.697 36.656 235.505 36.944C235.313 37.232 235.217 37.592 235.217 38.024C235.217 38.864 235.493 39.452 236.045 39.788C236.621 40.1 237.401 40.256 238.385 40.256ZM237.953 24.56C239.537 24.56 240.857 24.74 241.913 25.1C242.969 25.46 243.809 25.976 244.433 26.648C245.081 27.32 245.537 28.136 245.801 29.096C246.065 30.056 246.197 31.124 246.197 32.3V43.46C245.429 43.628 244.361 43.82 242.993 44.036C241.625 44.276 239.969 44.396 238.025 44.396C236.801 44.396 235.685 44.288 234.677 44.072C233.693 43.856 232.841 43.508 232.121 43.028C231.401 42.524 230.849 41.876 230.465 41.084C230.081 40.292 229.889 39.32 229.889 38.168C229.889 37.064 230.105 36.128 230.537 35.36C230.993 34.592 231.593 33.98 232.337 33.524C233.081 33.068 233.933 32.744 234.893 32.552C235.853 32.336 236.849 32.228 237.881 32.228C238.577 32.228 239.189 32.264 239.717 32.336C240.269 32.384 240.713 32.456 241.049 32.552V32.048C241.049 31.136 240.773 30.404 240.221 29.852C239.669 29.3 238.709 29.024 237.341 29.024C236.429 29.024 235.529 29.096 234.641 29.24C233.753 29.36 232.985 29.54 232.337 29.78L231.653 25.46C231.965 25.364 232.349 25.268 232.805 25.172C233.285 25.052 233.801 24.956 234.353 24.884C234.905 24.788 235.481 24.716 236.081 24.668C236.705 24.596 237.329 24.56 237.953 24.56Z" fill="url(#paint0_linear_1145_482)"/>
<g filter="url(#filter0_f_1145_482)">
<circle cx="30" cy="26" r="10" fill="#C5FB1B"/>
<circle cx="30" cy="26" r="9.5" stroke="#9E2900"/>
</g>
<g filter="url(#filter1_f_1145_482)">
<circle cx="45" cy="24" r="10" fill="#F80068"/>
<circle cx="45" cy="24" r="9.5" stroke="#9E2900" stroke-opacity="0.7"/>
</g>
<g filter="url(#filter2_f_1145_482)">
<circle cx="38" cy="31" r="12" fill="#151314" fill-opacity="0.81"/>
</g>
<path d="M50 33C50 38.5228 45.5228 43 40 43C34.4772 43 30 38.5228 30 33C30 27.4772 34.4772 23 40 23C45.5228 23 50 27.4772 50 33Z" fill="#C5FB1B"/>
<defs>
<filter id="filter0_f_1145_482" x="0" y="-4" width="60" height="60" filterUnits="userSpaceOnUse" color-interpolation-filters="sRGB">
<feFlood flood-opacity="0" result="BackgroundImageFix"/>
<feBlend mode="normal" in="SourceGraphic" in2="BackgroundImageFix" result="shape"/>
<feGaussianBlur stdDeviation="10" result="effect1_foregroundBlur_1145_482"/>
</filter>
<filter id="filter1_f_1145_482" x="15" y="-6" width="60" height="60" filterUnits="userSpaceOnUse" color-interpolation-filters="sRGB">
<feFlood flood-opacity="0" result="BackgroundImageFix"/>
<feBlend mode="normal" in="SourceGraphic" in2="BackgroundImageFix" result="shape"/>
<feGaussianBlur stdDeviation="10" result="effect1_foregroundBlur_1145_482"/>
</filter>
<filter id="filter2_f_1145_482" x="22" y="15" width="32" height="32" filterUnits="userSpaceOnUse" color-interpolation-filters="sRGB">
<feFlood flood-opacity="0" result="BackgroundImageFix"/>
<feBlend mode="normal" in="SourceGraphic" in2="BackgroundImageFix" result="shape"/>
<feGaussianBlur stdDeviation="2" result="effect1_foregroundBlur_1145_482"/>
</filter>
<linearGradient id="paint0_linear_1145_482" x1="319.778" y1="16.3452" x2="25.9371" y2="-10.0648" gradientUnits="userSpaceOnUse">
<stop offset="0.112116" stop-color="#FF38CC"/>
<stop offset="0.82067" stop-color="#FE8900"/>
</linearGradient>
</defs>
</svg>
