<svg width="248" height="62" viewBox="0 0 248 62" fill="none" xmlns="http://www.w3.org/2000/svg">
<path d="M88.0927 27.716C88.3807 28.7 88.6927 29.816 89.0287 31.064C89.3887 32.288 89.7607 33.56 90.1447 34.88C90.5527 36.2 90.9607 37.52 91.3687 38.84C91.7767 40.16 92.1727 41.384 92.5567 42.512C92.8687 41.288 93.1807 39.956 93.4927 38.516C93.8287 37.076 94.1407 35.588 94.4287 34.052C94.7167 32.516 94.9927 30.992 95.2567 29.48C95.5447 27.944 95.8087 26.468 96.0487 25.052H101.881C101.041 29.228 100.069 33.464 98.9647 37.76C97.8847 42.056 96.7087 46.136 95.4367 50H90.2887C89.4487 47.696 88.6327 45.284 87.8407 42.764C87.0487 40.22 86.2687 37.676 85.5007 35.132C84.7327 37.676 83.9647 40.22 83.1967 42.764C82.4287 45.284 81.6247 47.696 80.7847 50H75.6367C74.3647 46.136 73.1767 42.056 72.0727 37.76C70.9927 33.464 70.0327 29.228 69.1927 25.052H75.2767C75.5167 26.468 75.7807 27.944 76.0687 29.48C76.3567 30.992 76.6567 32.516 76.9687 34.052C77.2807 35.588 77.5927 37.076 77.9047 38.516C78.2407 39.956 78.5767 41.288 78.9127 42.512C79.3447 41.336 79.7647 40.088 80.1727 38.768C80.5807 37.448 80.9767 36.128 81.3607 34.808C81.7447 33.488 82.0927 32.216 82.4047 30.992C82.7407 29.768 83.0407 28.676 83.3047 27.716H88.0927ZM103.034 40.676C103.034 38.996 103.286 37.532 103.79 36.284C104.318 35.012 105.002 33.956 105.842 33.116C106.682 32.276 107.642 31.64 108.722 31.208C109.826 30.776 110.954 30.56 112.106 30.56C114.794 30.56 116.918 31.388 118.478 33.044C120.038 34.676 120.818 37.088 120.818 40.28C120.818 40.592 120.806 40.94 120.782 41.324C120.758 41.684 120.734 42.008 120.71 42.296H108.542C108.662 43.4 109.178 44.276 110.09 44.924C111.002 45.572 112.226 45.896 113.762 45.896C114.746 45.896 115.706 45.812 116.642 45.644C117.602 45.452 118.382 45.224 118.982 44.96L119.702 49.316C119.414 49.46 119.03 49.604 118.55 49.748C118.07 49.892 117.53 50.012 116.93 50.108C116.354 50.228 115.73 50.324 115.058 50.396C114.386 50.468 113.714 50.504 113.042 50.504C111.338 50.504 109.85 50.252 108.578 49.748C107.33 49.244 106.286 48.56 105.446 47.696C104.63 46.808 104.018 45.764 103.61 44.564C103.226 43.364 103.034 42.068 103.034 40.676ZM115.634 38.624C115.61 38.168 115.526 37.724 115.382 37.292C115.262 36.86 115.058 36.476 114.77 36.14C114.506 35.804 114.158 35.528 113.726 35.312C113.318 35.096 112.802 34.988 112.178 34.988C111.578 34.988 111.062 35.096 110.63 35.312C110.198 35.504 109.838 35.768 109.55 36.104C109.262 36.44 109.034 36.836 108.866 37.292C108.722 37.724 108.614 38.168 108.542 38.624H115.634ZM137.09 40.388C137.09 36.932 135.818 35.204 133.274 35.204C132.722 35.204 132.17 35.276 131.618 35.42C131.09 35.564 130.658 35.744 130.322 35.96V45.716C130.586 45.764 130.922 45.812 131.33 45.86C131.738 45.884 132.182 45.896 132.662 45.896C134.126 45.896 135.23 45.392 135.974 44.384C136.718 43.376 137.09 42.044 137.09 40.388ZM142.562 40.532C142.562 42.044 142.334 43.412 141.878 44.636C141.446 45.86 140.81 46.904 139.97 47.768C139.13 48.632 138.098 49.304 136.874 49.784C135.65 50.24 134.258 50.468 132.698 50.468C132.05 50.468 131.366 50.432 130.646 50.36C129.95 50.312 129.254 50.24 128.558 50.144C127.886 50.048 127.238 49.94 126.614 49.82C125.99 49.676 125.438 49.532 124.958 49.388V22.928L130.322 22.064V31.496C130.922 31.232 131.546 31.028 132.194 30.884C132.842 30.74 133.538 30.668 134.282 30.668C135.626 30.668 136.814 30.908 137.846 31.388C138.878 31.844 139.742 32.504 140.438 33.368C141.134 34.232 141.662 35.276 142.022 36.5C142.382 37.7 142.562 39.044 142.562 40.532ZM153.668 25.052C154.1 25.844 154.592 26.828 155.144 28.004C155.72 29.156 156.308 30.416 156.908 31.784C157.532 33.128 158.144 34.508 158.744 35.924C159.344 37.34 159.908 38.672 160.436 39.92C160.964 38.672 161.528 37.34 162.128 35.924C162.728 34.508 163.328 33.128 163.928 31.784C164.552 30.416 165.14 29.156 165.692 28.004C166.268 26.828 166.772 25.844 167.204 25.052H172.316C172.556 26.708 172.772 28.568 172.964 30.632C173.18 32.672 173.36 34.808 173.504 37.04C173.672 39.248 173.816 41.468 173.936 43.7C174.08 45.932 174.2 48.032 174.296 50H168.824C168.752 47.576 168.656 44.936 168.536 42.08C168.416 39.224 168.236 36.344 167.996 33.44C167.564 34.448 167.084 35.564 166.556 36.788C166.028 38.012 165.5 39.236 164.972 40.46C164.468 41.684 163.976 42.86 163.496 43.988C163.016 45.092 162.608 46.04 162.272 46.832H158.348C158.012 46.04 157.604 45.092 157.124 43.988C156.644 42.86 156.14 41.684 155.612 40.46C155.108 39.236 154.592 38.012 154.064 36.788C153.536 35.564 153.056 34.448 152.624 33.44C152.384 36.344 152.204 39.224 152.084 42.08C151.964 44.936 151.868 47.576 151.796 50H146.324C146.42 48.032 146.528 45.932 146.648 43.7C146.792 41.468 146.936 39.248 147.08 37.04C147.248 34.808 147.428 32.672 147.62 30.632C147.836 28.568 148.064 26.708 148.304 25.052H153.668ZM178.093 40.676C178.093 38.996 178.345 37.532 178.849 36.284C179.377 35.012 180.061 33.956 180.901 33.116C181.741 32.276 182.701 31.64 183.781 31.208C184.885 30.776 186.013 30.56 187.165 30.56C189.853 30.56 191.977 31.388 193.537 33.044C195.097 34.676 195.877 37.088 195.877 40.28C195.877 40.592 195.865 40.94 195.841 41.324C195.817 41.684 195.793 42.008 195.769 42.296H183.601C183.721 43.4 184.237 44.276 185.149 44.924C186.061 45.572 187.285 45.896 188.821 45.896C189.805 45.896 190.765 45.812 191.701 45.644C192.661 45.452 193.441 45.224 194.041 44.96L194.761 49.316C194.473 49.46 194.089 49.604 193.609 49.748C193.129 49.892 192.589 50.012 191.989 50.108C191.413 50.228 190.789 50.324 190.117 50.396C189.445 50.468 188.773 50.504 188.101 50.504C186.397 50.504 184.909 50.252 183.637 49.748C182.389 49.244 181.345 48.56 180.505 47.696C179.689 46.808 179.077 45.764 178.669 44.564C178.285 43.364 178.093 42.068 178.093 40.676ZM190.693 38.624C190.669 38.168 190.585 37.724 190.441 37.292C190.321 36.86 190.117 36.476 189.829 36.14C189.565 35.804 189.217 35.528 188.785 35.312C188.377 35.096 187.861 34.988 187.237 34.988C186.637 34.988 186.121 35.096 185.689 35.312C185.257 35.504 184.897 35.768 184.609 36.104C184.321 36.44 184.093 36.836 183.925 37.292C183.781 37.724 183.673 38.168 183.601 38.624H190.693ZM204.588 40.388C204.588 42.044 204.96 43.376 205.704 44.384C206.448 45.392 207.552 45.896 209.016 45.896C209.496 45.896 209.94 45.884 210.348 45.86C210.756 45.812 211.092 45.764 211.356 45.716V35.96C211.02 35.744 210.576 35.564 210.024 35.42C209.496 35.276 208.956 35.204 208.404 35.204C205.86 35.204 204.588 36.932 204.588 40.388ZM216.72 49.388C216.24 49.532 215.688 49.676 215.064 49.82C214.44 49.94 213.78 50.048 213.084 50.144C212.412 50.24 211.716 50.312 210.996 50.36C210.3 50.432 209.628 50.468 208.98 50.468C207.42 50.468 206.028 50.24 204.804 49.784C203.58 49.328 202.548 48.68 201.708 47.84C200.868 46.976 200.22 45.944 199.764 44.744C199.332 43.52 199.116 42.152 199.116 40.64C199.116 39.104 199.308 37.724 199.692 36.5C200.076 35.252 200.628 34.196 201.348 33.332C202.068 32.468 202.944 31.808 203.976 31.352C205.032 30.896 206.232 30.668 207.576 30.668C208.32 30.668 208.98 30.74 209.556 30.884C210.156 31.028 210.756 31.232 211.356 31.496V22.928L216.72 22.064V49.388ZM227.107 50H221.743V31.064H227.107V50ZM227.611 25.592C227.611 26.576 227.287 27.356 226.639 27.932C226.015 28.484 225.271 28.76 224.407 28.76C223.543 28.76 222.787 28.484 222.139 27.932C221.515 27.356 221.203 26.576 221.203 25.592C221.203 24.608 221.515 23.84 222.139 23.288C222.787 22.712 223.543 22.424 224.407 22.424C225.271 22.424 226.015 22.712 226.639 23.288C227.287 23.84 227.611 24.608 227.611 25.592ZM239.385 46.256C239.913 46.256 240.417 46.244 240.897 46.22C241.377 46.196 241.761 46.16 242.049 46.112V42.044C241.833 41.996 241.509 41.948 241.077 41.9C240.645 41.852 240.249 41.828 239.889 41.828C239.385 41.828 238.905 41.864 238.449 41.936C238.017 41.984 237.633 42.092 237.297 42.26C236.961 42.428 236.697 42.656 236.505 42.944C236.313 43.232 236.217 43.592 236.217 44.024C236.217 44.864 236.493 45.452 237.045 45.788C237.621 46.1 238.401 46.256 239.385 46.256ZM238.953 30.56C240.537 30.56 241.857 30.74 242.913 31.1C243.969 31.46 244.809 31.976 245.433 32.648C246.081 33.32 246.537 34.136 246.801 35.096C247.065 36.056 247.197 37.124 247.197 38.3V49.46C246.429 49.628 245.361 49.82 243.993 50.036C242.625 50.276 240.969 50.396 239.025 50.396C237.801 50.396 236.685 50.288 235.677 50.072C234.693 49.856 233.841 49.508 233.121 49.028C232.401 48.524 231.849 47.876 231.465 47.084C231.081 46.292 230.889 45.32 230.889 44.168C230.889 43.064 231.105 42.128 231.537 41.36C231.993 40.592 232.593 39.98 233.337 39.524C234.081 39.068 234.933 38.744 235.893 38.552C236.853 38.336 237.849 38.228 238.881 38.228C239.577 38.228 240.189 38.264 240.717 38.336C241.269 38.384 241.713 38.456 242.049 38.552V38.048C242.049 37.136 241.773 36.404 241.221 35.852C240.669 35.3 239.709 35.024 238.341 35.024C237.429 35.024 236.529 35.096 235.641 35.24C234.753 35.36 233.985 35.54 233.337 35.78L232.653 31.46C232.965 31.364 233.349 31.268 233.805 31.172C234.285 31.052 234.801 30.956 235.353 30.884C235.905 30.788 236.481 30.716 237.081 30.668C237.705 30.596 238.329 30.56 238.953 30.56Z" fill="url(#paint0_linear_323_1365)"/>
<g filter="url(#filter0_f_323_1365)">
<circle cx="30" cy="32" r="10" fill="#C5FB1B"/>
<circle cx="30" cy="32" r="9.5" stroke="#9E2900"/>
</g>
<g filter="url(#filter1_f_323_1365)">
<circle cx="45" cy="30" r="10" fill="#F80068"/>
<circle cx="45" cy="30" r="9.5" stroke="#9E2900" stroke-opacity="0.7"/>
</g>
<g filter="url(#filter2_f_323_1365)">
<circle cx="38" cy="37" r="12" fill="#151314" fill-opacity="0.81"/>
</g>
<g filter="url(#filter3_b_323_1365)">
<path d="M50 39C50 44.5228 45.5228 49 40 49C34.4772 49 30 44.5228 30 39C30 33.4772 34.4772 29 40 29C45.5228 29 50 33.4772 50 39Z" fill="#C5FB1B"/>
</g>
<defs>
<filter id="filter0_f_323_1365" x="0" y="2" width="60" height="60" filterUnits="userSpaceOnUse" color-interpolation-filters="sRGB">
<feFlood flood-opacity="0" result="BackgroundImageFix"/>
<feBlend mode="normal" in="SourceGraphic" in2="BackgroundImageFix" result="shape"/>
<feGaussianBlur stdDeviation="10" result="effect1_foregroundBlur_323_1365"/>
</filter>
<filter id="filter1_f_323_1365" x="15" y="0" width="60" height="60" filterUnits="userSpaceOnUse" color-interpolation-filters="sRGB">
<feFlood flood-opacity="0" result="BackgroundImageFix"/>
<feBlend mode="normal" in="SourceGraphic" in2="BackgroundImageFix" result="shape"/>
<feGaussianBlur stdDeviation="10" result="effect1_foregroundBlur_323_1365"/>
</filter>
<filter id="filter2_f_323_1365" x="22" y="21" width="32" height="32" filterUnits="userSpaceOnUse" color-interpolation-filters="sRGB">
<feFlood flood-opacity="0" result="BackgroundImageFix"/>
<feBlend mode="normal" in="SourceGraphic" in2="BackgroundImageFix" result="shape"/>
<feGaussianBlur stdDeviation="2" result="effect1_foregroundBlur_323_1365"/>
</filter>
<filter id="filter3_b_323_1365" x="-576" y="-577" width="1232" height="1232" filterUnits="userSpaceOnUse" color-interpolation-filters="sRGB">
<feFlood flood-opacity="0" result="BackgroundImageFix"/>
<feGaussianBlur in="BackgroundImage" stdDeviation="303"/>
<feComposite in2="SourceAlpha" operator="in" result="effect1_backgroundBlur_323_1365"/>
<feBlend mode="normal" in="SourceGraphic" in2="effect1_backgroundBlur_323_1365" result="shape"/>
</filter>
<linearGradient id="paint0_linear_323_1365" x1="320.778" y1="22.3452" x2="26.9371" y2="-4.0648" gradientUnits="userSpaceOnUse">
<stop offset="0.112116" stop-color="#FF38CC"/>
<stop offset="0.82067" stop-color="#FE8900"/>
</linearGradient>
</defs>
</svg>
