<svg width="736" height="171" viewBox="0 0 736 171" fill="none" xmlns="http://www.w3.org/2000/svg">
<path d="M250.555 74.5568C251.298 77.0933 252.102 79.9701 252.968 83.1872C253.896 86.3424 254.855 89.6213 255.845 93.024C256.897 96.4267 257.949 99.8293 259 103.232C260.052 106.635 261.073 109.79 262.063 112.698C262.867 109.542 263.671 106.109 264.475 102.397C265.342 98.6848 266.146 94.8491 266.888 90.8896C267.631 86.9301 268.342 83.0016 269.023 79.104C269.765 75.1445 270.446 71.3397 271.064 67.6896H286.098C283.933 78.4544 281.427 89.3739 278.581 100.448C275.797 111.522 272.766 122.039 269.487 132H256.216C254.051 126.061 251.947 119.843 249.906 113.347C247.864 106.789 245.854 100.231 243.874 93.6736C241.894 100.231 239.914 106.789 237.935 113.347C235.955 119.843 233.882 126.061 231.717 132H218.447C215.168 122.039 212.105 111.522 209.259 100.448C206.475 89.3739 204.001 78.4544 201.835 67.6896H217.519C218.137 71.3397 218.818 75.1445 219.56 79.104C220.303 83.0016 221.076 86.9301 221.88 90.8896C222.685 94.8491 223.489 98.6848 224.293 102.397C225.159 106.109 226.025 109.542 226.891 112.698C228.005 109.666 229.088 106.449 230.139 103.046C231.191 99.6437 232.212 96.2411 233.202 92.8384C234.192 89.4357 235.089 86.1568 235.893 83.0016C236.759 79.8464 237.533 77.0315 238.213 74.5568H250.555ZM289.071 107.965C289.071 103.634 289.721 99.8603 291.02 96.6432C292.381 93.3643 294.144 90.6421 296.31 88.4768C298.475 86.3115 300.95 84.672 303.734 83.5584C306.579 82.4448 309.487 81.888 312.457 81.888C319.386 81.888 324.861 84.0224 328.882 88.2912C332.904 92.4981 334.914 98.7157 334.914 106.944C334.914 107.748 334.883 108.645 334.822 109.635C334.76 110.563 334.698 111.398 334.636 112.141H303.27C303.579 114.987 304.909 117.245 307.26 118.915C309.611 120.586 312.766 121.421 316.726 121.421C319.262 121.421 321.737 121.204 324.15 120.771C326.624 120.276 328.635 119.689 330.182 119.008L332.038 130.237C331.295 130.608 330.305 130.979 329.068 131.35C327.831 131.722 326.439 132.031 324.892 132.278C323.407 132.588 321.799 132.835 320.066 133.021C318.334 133.206 316.602 133.299 314.87 133.299C310.477 133.299 306.641 132.65 303.362 131.35C300.145 130.051 297.454 128.288 295.289 126.061C293.185 123.772 291.608 121.081 290.556 117.987C289.566 114.894 289.071 111.553 289.071 107.965ZM321.551 102.675C321.489 101.5 321.273 100.355 320.902 99.2416C320.592 98.128 320.066 97.1381 319.324 96.272C318.643 95.4059 317.746 94.6944 316.633 94.1376C315.581 93.5808 314.251 93.3024 312.642 93.3024C311.096 93.3024 309.766 93.5808 308.652 94.1376C307.538 94.6325 306.61 95.3131 305.868 96.1792C305.126 97.0453 304.538 98.0661 304.105 99.2416C303.734 100.355 303.455 101.5 303.27 102.675H321.551ZM376.858 107.222C376.858 98.3136 373.58 93.8592 367.022 93.8592C365.599 93.8592 364.176 94.0448 362.753 94.416C361.392 94.7872 360.278 95.2512 359.412 95.808V120.957C360.093 121.081 360.959 121.204 362.01 121.328C363.062 121.39 364.207 121.421 365.444 121.421C369.218 121.421 372.064 120.122 373.982 117.523C375.9 114.925 376.858 111.491 376.858 107.222ZM390.964 107.594C390.964 111.491 390.376 115.018 389.201 118.173C388.087 121.328 386.448 124.019 384.282 126.246C382.117 128.474 379.457 130.206 376.302 131.443C373.146 132.619 369.558 133.206 365.537 133.206C363.866 133.206 362.103 133.114 360.247 132.928C358.453 132.804 356.659 132.619 354.865 132.371C353.133 132.124 351.462 131.845 349.854 131.536C348.245 131.165 346.822 130.794 345.585 130.422V62.2144L359.412 59.9872V84.3008C360.959 83.6203 362.567 83.0944 364.238 82.7232C365.908 82.352 367.702 82.1664 369.62 82.1664C373.085 82.1664 376.147 82.7851 378.807 84.0224C381.468 85.1979 383.695 86.8992 385.489 89.1264C387.283 91.3536 388.644 94.0448 389.572 97.2C390.5 100.293 390.964 103.758 390.964 107.594ZM419.594 67.6896C420.708 69.7312 421.976 72.2677 423.399 75.2992C424.884 78.2688 426.4 81.5168 427.946 85.0432C429.555 88.5077 431.132 92.0651 432.679 95.7152C434.226 99.3653 435.68 102.799 437.041 106.016C438.402 102.799 439.856 99.3653 441.402 95.7152C442.949 92.0651 444.496 88.5077 446.042 85.0432C447.651 81.5168 449.167 78.2688 450.59 75.2992C452.074 72.2677 453.374 69.7312 454.487 67.6896H467.665C468.283 71.9584 468.84 76.7531 469.335 82.0736C469.892 87.3323 470.356 92.8384 470.727 98.592C471.16 104.284 471.531 110.006 471.841 115.76C472.212 121.514 472.521 126.927 472.769 132H458.663C458.478 125.751 458.23 118.946 457.921 111.584C457.611 104.222 457.147 96.7979 456.529 89.312C455.415 91.9104 454.178 94.7872 452.817 97.9424C451.456 101.098 450.095 104.253 448.734 107.408C447.434 110.563 446.166 113.595 444.929 116.502C443.691 119.348 442.64 121.792 441.774 123.834H431.658C430.792 121.792 429.74 119.348 428.503 116.502C427.266 113.595 425.967 110.563 424.606 107.408C423.306 104.253 421.976 101.098 420.615 97.9424C419.254 94.7872 418.017 91.9104 416.903 89.312C416.284 96.7979 415.82 104.222 415.511 111.584C415.202 118.946 414.954 125.751 414.769 132H400.663C400.911 126.927 401.189 121.514 401.498 115.76C401.87 110.006 402.241 104.284 402.612 98.592C403.045 92.8384 403.509 87.3323 404.004 82.0736C404.561 76.7531 405.148 71.9584 405.767 67.6896H419.594ZM482.556 107.965C482.556 103.634 483.205 99.8603 484.504 96.6432C485.865 93.3643 487.629 90.6421 489.794 88.4768C491.959 86.3115 494.434 84.672 497.218 83.5584C500.064 82.4448 502.972 81.888 505.941 81.888C512.87 81.888 518.345 84.0224 522.367 88.2912C526.388 92.4981 528.399 98.7157 528.399 106.944C528.399 107.748 528.368 108.645 528.306 109.635C528.244 110.563 528.182 111.398 528.12 112.141H496.754C497.063 114.987 498.393 117.245 500.744 118.915C503.095 120.586 506.25 121.421 510.21 121.421C512.746 121.421 515.221 121.204 517.634 120.771C520.109 120.276 522.119 119.689 523.666 119.008L525.522 130.237C524.78 130.608 523.79 130.979 522.552 131.35C521.315 131.722 519.923 132.031 518.376 132.278C516.892 132.588 515.283 132.835 513.551 133.021C511.818 133.206 510.086 133.299 508.354 133.299C503.961 133.299 500.126 132.65 496.847 131.35C493.63 130.051 490.938 128.288 488.773 126.061C486.67 123.772 485.092 121.081 484.04 117.987C483.05 114.894 482.556 111.553 482.556 107.965ZM515.036 102.675C514.974 101.5 514.757 100.355 514.386 99.2416C514.077 98.128 513.551 97.1381 512.808 96.272C512.128 95.4059 511.231 94.6944 510.117 94.1376C509.065 93.5808 507.735 93.3024 506.127 93.3024C504.58 93.3024 503.25 93.5808 502.136 94.1376C501.023 94.6325 500.095 95.3131 499.352 96.1792C498.61 97.0453 498.022 98.0661 497.589 99.2416C497.218 100.355 496.94 101.5 496.754 102.675H515.036ZM550.855 107.222C550.855 111.491 551.814 114.925 553.732 117.523C555.65 120.122 558.495 121.421 562.269 121.421C563.507 121.421 564.651 121.39 565.703 121.328C566.755 121.204 567.621 121.081 568.301 120.957V95.808C567.435 95.2512 566.291 94.7872 564.868 94.416C563.507 94.0448 562.115 93.8592 560.692 93.8592C554.134 93.8592 550.855 98.3136 550.855 107.222ZM582.128 130.422C580.891 130.794 579.468 131.165 577.86 131.536C576.251 131.845 574.55 132.124 572.756 132.371C571.023 132.619 569.229 132.804 567.373 132.928C565.579 133.114 563.847 133.206 562.176 133.206C558.155 133.206 554.567 132.619 551.412 131.443C548.256 130.268 545.596 128.597 543.431 126.432C541.266 124.205 539.595 121.545 538.42 118.451C537.306 115.296 536.749 111.77 536.749 107.872C536.749 103.913 537.244 100.355 538.234 97.2C539.224 93.9829 540.647 91.2608 542.503 89.0336C544.359 86.8064 546.617 85.1051 549.277 83.9296C551.999 82.7541 555.093 82.1664 558.557 82.1664C560.475 82.1664 562.176 82.352 563.661 82.7232C565.208 83.0944 566.755 83.6203 568.301 84.3008V62.2144L582.128 59.9872V130.422ZM608.903 132H595.075V83.1872H608.903V132ZM610.202 69.0816C610.202 71.6181 609.367 73.6288 607.696 75.1136C606.088 76.5365 604.17 77.248 601.943 77.248C599.715 77.248 597.767 76.5365 596.096 75.1136C594.488 73.6288 593.683 71.6181 593.683 69.0816C593.683 66.5451 594.488 64.5653 596.096 63.1424C597.767 61.6576 599.715 60.9152 601.943 60.9152C604.17 60.9152 606.088 61.6576 607.696 63.1424C609.367 64.5653 610.202 66.5451 610.202 69.0816ZM640.553 122.349C641.914 122.349 643.214 122.318 644.451 122.256C645.688 122.194 646.678 122.101 647.421 121.978V111.491C646.864 111.367 646.029 111.244 644.915 111.12C643.801 110.996 642.781 110.934 641.853 110.934C640.553 110.934 639.316 111.027 638.141 111.213C637.027 111.337 636.037 111.615 635.171 112.048C634.305 112.481 633.624 113.069 633.129 113.811C632.634 114.554 632.387 115.482 632.387 116.595C632.387 118.761 633.098 120.276 634.521 121.142C636.006 121.947 638.017 122.349 640.553 122.349ZM639.44 81.888C643.523 81.888 646.926 82.352 649.648 83.28C652.37 84.208 654.535 85.5381 656.144 87.2704C657.814 89.0027 658.99 91.1061 659.67 93.5808C660.351 96.0555 660.691 98.8085 660.691 101.84V130.608C658.711 131.041 655.958 131.536 652.432 132.093C648.905 132.711 644.637 133.021 639.625 133.021C636.47 133.021 633.593 132.742 630.995 132.186C628.458 131.629 626.262 130.732 624.406 129.494C622.55 128.195 621.127 126.525 620.137 124.483C619.147 122.442 618.653 119.936 618.653 116.966C618.653 114.121 619.209 111.708 620.323 109.728C621.498 107.748 623.045 106.171 624.963 104.995C626.881 103.82 629.077 102.985 631.552 102.49C634.026 101.933 636.594 101.654 639.254 101.654C641.048 101.654 642.626 101.747 643.987 101.933C645.41 102.057 646.554 102.242 647.421 102.49V101.19C647.421 98.8395 646.709 96.9525 645.286 95.5296C643.863 94.1067 641.389 93.3952 637.862 93.3952C635.511 93.3952 633.191 93.5808 630.902 93.952C628.613 94.2613 626.633 94.7253 624.963 95.344L623.2 84.208C624.004 83.9605 624.994 83.7131 626.169 83.4656C627.407 83.1563 628.737 82.9088 630.16 82.7232C631.583 82.4757 633.067 82.2901 634.614 82.1664C636.223 81.9808 637.831 81.888 639.44 81.888Z" fill="url(#paint0_linear_618_268)"/>
<g filter="url(#filter0_f_618_268)">
<circle cx="103.413" cy="81.9197" r="25.4129" fill="#C5FB1B"/>
<circle cx="103.413" cy="81.9197" r="24.1423" stroke="#9E2900" stroke-width="2.54129"/>
</g>
<g filter="url(#filter1_f_618_268)">
<circle cx="141.532" cy="76.8373" r="25.4129" fill="#F80068"/>
<circle cx="141.532" cy="76.8373" r="24.1423" stroke="#9E2900" stroke-opacity="0.7" stroke-width="2.54129"/>
</g>
<g filter="url(#filter2_f_618_268)">
<circle cx="123.744" cy="94.6263" r="30.4955" fill="#151314" fill-opacity="0.81"/>
</g>
<path d="M154.238 99.709C154.238 113.744 142.86 125.122 128.825 125.122C114.79 125.122 103.412 113.744 103.412 99.709C103.412 85.6739 114.79 74.2961 128.825 74.2961C142.86 74.2961 154.238 85.6739 154.238 99.709Z" fill="#C5FB1B"/>
<defs>
<filter id="filter0_f_618_268" x="27.1742" y="5.68104" width="152.478" height="152.477" filterUnits="userSpaceOnUse" color-interpolation-filters="sRGB">
<feFlood flood-opacity="0" result="BackgroundImageFix"/>
<feBlend mode="normal" in="SourceGraphic" in2="BackgroundImageFix" result="shape"/>
<feGaussianBlur stdDeviation="25.4129" result="effect1_foregroundBlur_618_268"/>
</filter>
<filter id="filter1_f_618_268" x="65.2933" y="0.59864" width="152.478" height="152.477" filterUnits="userSpaceOnUse" color-interpolation-filters="sRGB">
<feFlood flood-opacity="0" result="BackgroundImageFix"/>
<feBlend mode="normal" in="SourceGraphic" in2="BackgroundImageFix" result="shape"/>
<feGaussianBlur stdDeviation="25.4129" result="effect1_foregroundBlur_618_268"/>
</filter>
<filter id="filter2_f_618_268" x="83.0829" y="53.9657" width="81.3215" height="81.3213" filterUnits="userSpaceOnUse" color-interpolation-filters="sRGB">
<feFlood flood-opacity="0" result="BackgroundImageFix"/>
<feBlend mode="normal" in="SourceGraphic" in2="BackgroundImageFix" result="shape"/>
<feGaussianBlur stdDeviation="5.08258" result="effect1_foregroundBlur_618_268"/>
</filter>
<linearGradient id="paint0_linear_618_268" x1="852.894" y1="60.3428" x2="90.9306" y2="-8.6147" gradientUnits="userSpaceOnUse">
<stop offset="0.112116" stop-color="#FF38CC"/>
<stop offset="0.82067" stop-color="#FE8900"/>
</linearGradient>
</defs>
</svg>
