<svg width="543" height="542" viewBox="0 0 543 542" fill="none" xmlns="http://www.w3.org/2000/svg">
<g opacity="0.69">
<g filter="url(#filter0_f_300_126)">
<path d="M309.12 183.563C332.109 175.69 355.194 195.164 351.308 219.152L317.977 424.873C313.978 449.559 284.58 460.447 265.466 444.322L101.632 306.117C82.5173 289.993 88.2966 259.181 111.955 251.079L309.12 183.563Z" fill="#F80068"/>
<path d="M309.318 184.14C331.871 176.417 354.518 195.522 350.706 219.054L317.375 424.776C313.451 448.993 284.611 459.674 265.859 443.856L102.026 305.651C83.2735 289.832 88.9432 259.605 112.153 251.657L309.318 184.14Z" stroke="#9E2900" stroke-width="1.22077"/>
</g>
<g filter="url(#filter1_f_300_126)">
<path d="M305.735 189.185C328.721 181.32 351.798 200.787 347.918 224.769L315.469 425.329C311.475 450.019 282.073 460.912 262.956 444.785L103.18 310.003C84.063 293.876 89.8466 263.06 113.51 254.963L305.735 189.185Z" fill="#F80068"/>
<path d="M305.933 189.763C328.482 182.047 351.122 201.145 347.315 224.672L314.867 425.232C310.948 449.453 282.104 460.14 263.35 444.319L103.574 309.537C84.8192 293.716 90.4931 263.484 113.708 255.54L305.933 189.763Z" stroke="#9E2900" stroke-width="1.22077"/>
</g>
</g>
<g filter="url(#filter2_i_300_126)">
<path d="M306.129 185.205C329.114 177.339 352.192 196.807 348.312 220.789L315.863 421.348C311.868 446.038 282.467 456.931 263.35 440.805L103.574 306.022C84.4565 289.896 90.2402 259.08 113.904 250.982L306.129 185.205Z" fill="#131313"/>
</g>
<path d="M306.65 186.727C328.486 179.255 350.409 197.749 346.723 220.532L314.274 421.092C310.48 444.547 282.549 454.895 264.387 439.575L104.611 304.793C86.4498 289.472 91.9442 260.197 114.425 252.504L306.65 186.727Z" stroke="#F80068" stroke-width="3.21779"/>
<defs>
<filter id="filter0_f_300_126" x="65.5217" y="157.118" width="310.887" height="319.489" filterUnits="userSpaceOnUse" color-interpolation-filters="sRGB">
<feFlood flood-opacity="0" result="BackgroundImageFix"/>
<feBlend mode="normal" in="SourceGraphic" in2="BackgroundImageFix" result="shape"/>
<feGaussianBlur stdDeviation="12.3348" result="effect1_foregroundBlur_300_126"/>
</filter>
<filter id="filter1_f_300_126" x="64.9244" y="160.598" width="310.238" height="318.618" filterUnits="userSpaceOnUse" color-interpolation-filters="sRGB">
<feFlood flood-opacity="0" result="BackgroundImageFix"/>
<feBlend mode="normal" in="SourceGraphic" in2="BackgroundImageFix" result="shape"/>
<feGaussianBlur stdDeviation="13.4074" result="effect1_foregroundBlur_300_126"/>
</filter>
<filter id="filter2_i_300_126" x="92.1328" y="183.432" width="256.608" height="269.871" filterUnits="userSpaceOnUse" color-interpolation-filters="sRGB">
<feFlood flood-opacity="0" result="BackgroundImageFix"/>
<feBlend mode="normal" in="SourceGraphic" in2="BackgroundImageFix" result="shape"/>
<feColorMatrix in="SourceAlpha" type="matrix" values="0 0 0 0 0 0 0 0 0 0 0 0 0 0 0 0 0 0 127 0" result="hardAlpha"/>
<feOffset dy="4.88307"/>
<feGaussianBlur stdDeviation="13.4074"/>
<feComposite in2="hardAlpha" operator="arithmetic" k2="-1" k3="1"/>
<feColorMatrix type="matrix" values="0 0 0 0 0.972549 0 0 0 0 0 0 0 0 0 0.407843 0 0 0 0.67 0"/>
<feBlend mode="normal" in2="shape" result="effect1_innerShadow_300_126"/>
</filter>
</defs>
</svg>
