<svg width="527" height="136" viewBox="0 0 527 136" fill="none" xmlns="http://www.w3.org/2000/svg">
<g filter="url(#filter0_b_2041_220)">
<rect width="527" height="136" rx="34.0411" fill="white" fill-opacity="0.01"/>
<rect x="1.36164" y="1.36164" width="524.277" height="133.277" rx="32.6795" stroke="url(#paint0_linear_2041_220)" stroke-width="2.72329"/>
</g>
<g filter="url(#filter1_d_2041_220)">
<path d="M436.928 82.4036C433.135 82.2243 429.556 80.5906 426.936 77.8417C424.315 75.0929 422.855 71.4403 422.857 67.6427C422.857 59.486 429.486 52.8571 437.643 52.8571C445.578 52.8571 452.034 59.0917 452.404 66.928L447.229 65.3756C446.826 63.6673 445.974 62.0976 444.762 60.8287C443.549 59.5598 442.02 58.6378 440.331 58.1579C438.643 57.6781 436.857 57.6578 435.159 58.0992C433.46 58.5407 431.91 59.4278 430.669 60.6688C429.428 61.9099 428.541 63.4599 428.099 65.1586C427.658 66.8573 427.678 68.643 428.158 70.3313C428.638 72.0196 429.56 73.549 430.829 74.7616C432.098 75.9742 433.667 76.8259 435.376 77.2287L436.928 82.4036ZM462.285 67.6427C462.285 68.382 462.261 69.1212 462.187 69.8605L457.332 68.4066C457.357 68.1602 457.357 67.8891 457.357 67.6427C457.357 56.7506 448.535 47.9285 437.643 47.9285C426.751 47.9285 417.929 56.7506 417.929 67.6427C417.929 78.5347 426.751 87.3568 437.643 87.3568C437.889 87.3568 438.16 87.3568 438.407 87.3322L439.861 92.1868C439.121 92.2607 438.382 92.2854 437.643 92.2854C424.04 92.2854 413 81.2454 413 67.6427C413 54.0399 424.04 43 437.643 43C451.245 43 462.285 54.0399 462.285 67.6427ZM452.995 78.1405L458.589 76.2676C459.723 75.898 459.698 74.2716 458.564 73.9266L439.836 68.308C438.899 68.037 438.012 68.8995 438.308 69.8359L443.927 88.5643C444.272 89.7225 445.898 89.7472 446.268 88.589L448.14 82.9951L457.776 92.6304C458.269 93.1232 459.033 93.1232 459.525 92.6304L462.655 89.5007C463.148 89.0079 463.148 88.244 462.655 87.7511L452.995 78.1405Z" fill="#C5FB1B"/>
</g>
<defs>
<filter id="filter0_b_2041_220" x="-136.164" y="-136.164" width="799.329" height="408.329" filterUnits="userSpaceOnUse" color-interpolation-filters="sRGB">
<feFlood flood-opacity="0" result="BackgroundImageFix"/>
<feGaussianBlur in="BackgroundImageFix" stdDeviation="68.0822"/>
<feComposite in2="SourceAlpha" operator="in" result="effect1_backgroundBlur_2041_220"/>
<feBlend mode="normal" in="SourceGraphic" in2="effect1_backgroundBlur_2041_220" result="shape"/>
</filter>
<filter id="filter1_d_2041_220" x="407" y="37" width="62.0244" height="62" filterUnits="userSpaceOnUse" color-interpolation-filters="sRGB">
<feFlood flood-opacity="0" result="BackgroundImageFix"/>
<feColorMatrix in="SourceAlpha" type="matrix" values="0 0 0 0 0 0 0 0 0 0 0 0 0 0 0 0 0 0 127 0" result="hardAlpha"/>
<feOffset/>
<feGaussianBlur stdDeviation="3"/>
<feComposite in2="hardAlpha" operator="out"/>
<feColorMatrix type="matrix" values="0 0 0 0 0.772549 0 0 0 0 0.984314 0 0 0 0 0.105882 0 0 0 1 0"/>
<feBlend mode="normal" in2="BackgroundImageFix" result="effect1_dropShadow_2041_220"/>
<feBlend mode="normal" in="SourceGraphic" in2="effect1_dropShadow_2041_220" result="shape"/>
</filter>
<linearGradient id="paint0_linear_2041_220" x1="11.8575" y1="7.29103" x2="272.257" y2="340.833" gradientUnits="userSpaceOnUse">
<stop stop-color="#AB8601" stop-opacity="0.04"/>
<stop offset="1" stop-color="#C7FF00" stop-opacity="0.72"/>
</linearGradient>
</defs>
</svg>
