<svg width="1623" height="479" viewBox="0 0 1623 479" fill="none" xmlns="http://www.w3.org/2000/svg">
<g filter="url(#filter0_b_2152_370)">
<path d="M0 25C0 11.1929 11.1929 0 25 0H1383.5C1515.77 0 1623 107.228 1623 239.5V239.5C1623 371.772 1515.77 479 1383.5 479H25C11.1929 479 0 467.807 0 454V25Z" fill="white" fill-opacity="0.01"/>
<path d="M0 25C0 11.1929 11.1929 0 25 0H1383.5C1515.77 0 1623 107.228 1623 239.5V239.5C1623 371.772 1515.77 479 1383.5 479H25C11.1929 479 0 467.807 0 454V25Z" fill="url(#paint0_radial_2152_370)" fill-opacity="0.2"/>
<path d="M25 1.49875H1383.5C1514.94 1.49875 1621.5 108.056 1621.5 239.5C1621.5 370.944 1514.94 477.501 1383.5 477.501H25C12.0206 477.501 1.49875 466.979 1.49875 454V25C1.49875 12.0206 12.0206 1.49875 25 1.49875Z" stroke="url(#paint1_linear_2152_370)" stroke-width="2.9975"/>
</g>
<defs>
<filter id="filter0_b_2152_370" x="-213.651" y="-213.651" width="2050.3" height="906.302" filterUnits="userSpaceOnUse" color-interpolation-filters="sRGB">
<feFlood flood-opacity="0" result="BackgroundImageFix"/>
<feGaussianBlur in="BackgroundImageFix" stdDeviation="106.826"/>
<feComposite in2="SourceAlpha" operator="in" result="effect1_backgroundBlur_2152_370"/>
<feBlend mode="normal" in="SourceGraphic" in2="effect1_backgroundBlur_2152_370" result="shape"/>
</filter>
<radialGradient id="paint0_radial_2152_370" cx="0" cy="0" r="1" gradientUnits="userSpaceOnUse" gradientTransform="translate(1242.07 294.003) rotate(-170.574) scale(1198.77 453.249)">
<stop offset="0.2375" stop-opacity="0"/>
<stop offset="0.76875" stop-color="#D2FF1D" stop-opacity="0.3"/>
<stop offset="0.930208" stop-color="#4F6300" stop-opacity="0.46"/>
</radialGradient>
<linearGradient id="paint1_linear_2152_370" x1="1560.46" y1="413.139" x2="1065.16" y2="-341.65" gradientUnits="userSpaceOnUse">
<stop offset="0.191" stop-color="#F80068" stop-opacity="0.27"/>
<stop offset="0.768459" stop-color="#3E3E3E" stop-opacity="0.119944"/>
<stop offset="1" stop-color="#F80068" stop-opacity="0.36"/>
</linearGradient>
</defs>
</svg>
