<svg width="894" height="872" viewBox="0 0 894 872" fill="none" xmlns="http://www.w3.org/2000/svg">
<g filter="url(#filter0_f_2003_185)">
<ellipse cx="446.95" cy="436" rx="396.95" ry="386" fill="#F80068"/>
<path d="M843.401 436C843.401 648.893 665.917 821.5 446.95 821.5C227.984 821.5 50.5 648.893 50.5 436C50.5 223.107 227.984 50.5 446.95 50.5C665.917 50.5 843.401 223.107 843.401 436Z" stroke="#9E2900"/>
</g>
<path d="M843.901 436C843.901 649.182 666.18 822 446.95 822C227.721 822 50 649.182 50 436C50 222.818 227.721 50 446.95 50C666.18 50 843.901 222.818 843.901 436Z" fill="#F80068"/>
<g filter="url(#filter1_i_2003_185)">
<ellipse cx="447.173" cy="436" rx="364.668" ry="355.526" fill="#131313"/>
</g>
<defs>
<filter id="filter0_f_2003_185" x="0" y="0" width="893.901" height="872" filterUnits="userSpaceOnUse" color-interpolation-filters="sRGB">
<feFlood flood-opacity="0" result="BackgroundImageFix"/>
<feBlend mode="normal" in="SourceGraphic" in2="BackgroundImageFix" result="shape"/>
<feGaussianBlur stdDeviation="25" result="effect1_foregroundBlur_2003_185"/>
</filter>
<filter id="filter1_i_2003_185" x="82.5049" y="80.4736" width="729.337" height="715.052" filterUnits="userSpaceOnUse" color-interpolation-filters="sRGB">
<feFlood flood-opacity="0" result="BackgroundImageFix"/>
<feBlend mode="normal" in="SourceGraphic" in2="BackgroundImageFix" result="shape"/>
<feColorMatrix in="SourceAlpha" type="matrix" values="0 0 0 0 0 0 0 0 0 0 0 0 0 0 0 0 0 0 127 0" result="hardAlpha"/>
<feOffset dy="4"/>
<feGaussianBlur stdDeviation="40"/>
<feComposite in2="hardAlpha" operator="arithmetic" k2="-1" k3="1"/>
<feColorMatrix type="matrix" values="0 0 0 0 0.658333 0 0 0 0 0.00548613 0 0 0 0 0.279261 0 0 0 1 0"/>
<feBlend mode="normal" in2="shape" result="effect1_innerShadow_2003_185"/>
</filter>
</defs>
</svg>
